<?xml version="1.0" ?><svg id="Layer_1" style="enable-background:new 0 0 96 96;" version="1.1" viewBox="0 0 96 96" xml:space="preserve" xmlns="http://www.w3.org/2000/svg" xmlns:xlink="http://www.w3.org/1999/xlink"><path d="M30,57.7c-9.3-0.1-17.2,5.9-17.2,12.8c0,7.1,6.7,13,16,13c13.1,0,17.7-5.5,17.7-12.6c0-0.9-0.1-1.7-0.3-2.5  c-1-4-5.1-6.2-10.2-9.7C34.2,58,32.1,57.7,30,57.7z M42.3,69.3c0.1,0.4,0.2,1,0.2,1.5c0,7.6-7.5,8.6-13.7,8.6c-5.2,0-12-2.9-12-9  c0-5.9,8.3-8.9,13.2-8.8c1.5,0,2.9,0.2,4.3,0.6C36.7,63.9,41.7,66.9,42.3,69.3z M27.3,12.4c-6.2-0.2-10.4,6.1-9.4,14.3  C19,35,25,40.7,31.2,40.9c6.3,0.2,9.8-5.1,8.8-13.3C38.9,19.4,33.6,12.6,27.3,12.4z M31.4,36.9c-5.3-0.2-8.8-5.9-9.4-10.7  c-0.5-3.6,0.5-9.9,5.3-9.8c5.2,0.2,8.3,7.3,8.8,11.7C36.5,31.7,36.2,37,31.4,36.9z M56.9,11.4c1.1-1.2,1.4-2.8,0.8-4.3  c-0.6-1.5-2-2.4-3.7-2.4c-7.7,0-15.5,0-23.2,0c-12.3,0-25.6,9.1-25.6,22.2c0,11.6,7.5,20.1,18.5,21.4c0,0.2,0,0.4,0,0.6  c0,0.8,0.1,1.5,0.2,2.2c-11.7,1.2-24,9.4-24,22C0,87,17.9,91.3,28.8,91.3c7.2,0,14.8-1.8,20.6-6.3c4.8-3.7,8.2-9,8.2-15.2  c0-9.4-3.2-13.8-10.6-19.4c-1-0.8-4.3-3.1-5.2-4.4c0.3-1.5,1.9-2.4,3.1-3.3c4.9-3.9,8.4-9.1,8.4-15.5c0-3.4-0.7-6.8-2.2-9.8  c0.2-0.2,0.4-0.3,0.6-0.6L56.9,11.4z M49.3,27.2c0,5.1-2.8,9.3-6.8,12.4c-3.9,3.1-4.7,4.3-4.7,6.9c0,2.2,4.7,5.5,6.8,7.1  c7.5,5.6,9,9.2,9,16.2c0,8.8-9.4,17.5-24.8,17.5C15.4,87.3,4,81.9,4,73.1c0-8.9,9.4-18.2,22.9-18.2c1.5,0,2.8,0,4.2,0  c-1.8-1.8-3.3-3.3-3.3-6c0-1.6,0.5-3.2,1.2-4.5c-0.7,0-1.5,0.1-2.3,0.1c-11.1,0-17.5-7.8-17.5-17.5c0-9.5,9.8-18.2,21.6-18.2  c6.1,0,23.2,0,23.2,0l-5.2,5.4h-6.1C47,16.6,49.3,21.6,49.3,27.2z M92,15.7h-6.7V9c0-2.2-1.8-4-4-4H76c-2.2,0-4,1.8-4,4v6.7h-6.7  c-2.2,0-4,1.8-4,4v5.3c0,2.2,1.8,4,4,4H72v6.7c0,2.2,1.8,4,4,4h5.4c2.2,0,4-1.8,4-4v-6.7v0v0H92c2.2,0,4-1.8,4-4v-5.4  C96,17.5,94.2,15.7,92,15.7z M92,25.1H81.3v10.7H76V25.1H65.3v-5.4H76V9h5.4v10.7H92V25.1z"/></svg>